<svg width="80" height="80" viewBox="0 0 80 80" fill="none" xmlns="http://www.w3.org/2000/svg">
<path d="M33.14 58.0233C25.8467 56.7367 22.8467 52.4456 24.14 45.15L28.6034 19.7633V19.74L15.9734 21.9633C8.6778 23.2589 5.6778 27.5556 6.97336 34.8533L12.1234 64.04C13.3789 71.3378 17.6622 74.3378 24.9734 73.04L46.8634 69.1867C51.9767 68.2633 55.0134 65.8533 55.8267 62.0033L55.8034 61.9633C55.5434 61.9267 55.3067 61.9267 55.04 61.88L33.14 58.0233Z" fill="#DBE3F2"/>
<path opacity="0.4" d="M64.03 10.8133L42.1467 6.95667C34.8511 5.67001 30.56 8.67001 29.2734 15.9567L28.6067 19.75L24.1267 45.15C22.8422 52.4456 25.8422 56.7367 33.1267 58.0233L55.0134 61.88C55.28 61.9267 55.5167 61.9267 55.7767 61.9633C62.59 62.9 66.6467 59.8933 67.8867 52.8667L73.03 23.6867C74.3256 16.3933 71.3256 12.1022 64.03 10.8133Z" fill="#DBE3F2"/>
<path d="M59.53 38.8467C59.3848 38.8477 59.2397 38.8354 59.0967 38.81L37.21 34.95C36.5678 34.8239 36.0006 34.4509 35.6303 33.9112C35.26 33.3715 35.1162 32.7081 35.2296 32.0635C35.3431 31.4188 35.7049 30.8444 36.2372 30.4636C36.7695 30.0828 37.43 29.9259 38.0767 30.0267L59.96 33.8867C60.5731 33.9976 61.1227 34.3335 61.501 34.8285C61.8794 35.3235 62.0593 35.9419 62.0055 36.5626C61.9517 37.1834 61.668 37.7616 61.2101 38.1841C60.7522 38.6066 60.153 38.8429 59.53 38.8467ZM64.3333 25.91C64.3904 25.5865 64.3832 25.2549 64.312 24.9342C64.2409 24.6135 64.1072 24.31 63.9187 24.041C63.7301 23.772 63.4904 23.5427 63.2133 23.3664C62.9361 23.1901 62.6269 23.0701 62.3034 23.0133L40.41 19.1567C39.7633 19.0559 39.1029 19.2128 38.5705 19.5936C38.0382 19.9744 37.6765 20.5488 37.563 21.1935C37.4495 21.8381 37.5934 22.5015 37.9636 23.0412C38.3339 23.5809 38.9011 23.9539 39.5433 24.08L61.43 27.94C61.5742 27.9653 61.7203 27.9776 61.8667 27.9767C62.4555 27.9784 63.026 27.7719 63.4774 27.3938C63.9288 27.0156 64.2319 26.4901 64.3333 25.91ZM51.8467 46.3333C51.9037 46.0098 51.8965 45.6783 51.8253 45.3576C51.7542 45.0369 51.6205 44.7333 51.432 44.4643C51.2435 44.1953 51.0038 43.9661 50.7266 43.7897C50.4494 43.6134 50.1402 43.4934 49.8167 43.4367L36.15 41.0233C35.4967 40.9084 34.8245 41.0577 34.2813 41.4384C33.738 41.8191 33.3683 42.4 33.2533 43.0533C33.1384 43.7067 33.2877 44.3789 33.6684 44.9221C34.0491 45.4653 34.63 45.8351 35.2834 45.95L48.95 48.36C49.0929 48.3865 49.238 48.3999 49.3833 48.4C49.9714 48.4003 50.5408 48.1932 50.9914 47.8152C51.4419 47.4373 51.7447 46.9125 51.8467 46.3333Z" fill="#DBE3F2"/>
</svg>
