<svg width="80" height="80" viewBox="0 0 80 80" fill="none" xmlns="http://www.w3.org/2000/svg">
<path d="M33.14 58.0233C25.8467 56.7367 22.8467 52.4456 24.14 45.15L28.6034 19.7633V19.74L15.9734 21.9633C8.6778 23.2589 5.6778 27.5556 6.97336 34.8533L12.1234 64.04C13.3789 71.3378 17.6622 74.3378 24.9734 73.04L46.8634 69.1867C51.9767 68.2633 55.0134 65.8533 55.8267 62.0033L55.8034 61.9633C55.5434 61.9267 55.3067 61.9267 55.04 61.88L33.14 58.0233Z" fill="#DBE3F2"/>
<path opacity="0.4" d="M64.03 10.8133L42.1467 6.95667C34.8511 5.67001 30.56 8.67001 29.2734 15.9567L28.6067 19.75L24.1267 45.15C22.8422 52.4456 25.8422 56.7367 33.1267 58.0233L55.0134 61.88C55.28 61.9267 55.5167 61.9267 55.7767 61.9633C62.59 62.9 66.6467 59.8933 67.8867 52.8667L73.03 23.6867C74.3256 16.3933 71.3256 12.1022 64.03 10.8133Z" fill="#DBE3F2"/>
<path fill-rule="evenodd" clip-rule="evenodd" d="M56.8395 29.3311C56.1375 33.0448 52.597 35.4598 48.8807 34.7573C45.1656 34.0551 42.7496 30.5142 43.4516 26.8005C44.1535 23.0868 47.6951 20.6733 51.4101 21.3755C55.1265 22.078 57.5415 25.6174 56.8395 29.3311ZM46.6299 46.6645C41.1452 45.6277 36.6829 43.8609 37.333 40.4216C37.9833 36.981 42.8058 37.002 48.2614 38.0333C53.7474 39.0702 58.2085 40.8368 57.5584 44.2761C56.908 47.7167 52.0855 47.6957 46.6299 46.6645Z" fill="#DBE3F2"/>
</svg>
