<svg width="80" height="80" viewBox="0 0 80 80" fill="none" xmlns="http://www.w3.org/2000/svg">
<path d="M33.1394 58.0231C25.8461 56.7364 22.8461 52.4453 24.1394 45.1497L28.6027 19.7631V19.7397L15.9727 21.9631C8.67719 23.2586 5.67719 27.5553 6.97275 34.8531L12.1227 64.0397C13.3783 71.3375 17.6616 74.3375 24.9727 73.0397L46.8627 69.1864C51.9761 68.2631 55.0127 65.8531 55.8261 62.0031L55.8027 61.9631C55.5427 61.9264 55.3061 61.9264 55.0394 61.8797L33.1394 58.0231Z" fill="#DBE3F2"/>
<path opacity="0.4" d="M64.03 10.8133L42.1467 6.95664C34.8511 5.66998 30.56 8.66998 29.2734 15.9566L28.6067 19.75L24.1267 45.15C22.8422 52.4455 25.8422 56.7366 33.1267 58.0233L55.0134 61.88C55.28 61.9266 55.5167 61.9266 55.7767 61.9633C62.59 62.9 66.6467 59.8933 67.8867 52.8666L73.03 23.6866C74.3256 16.3933 71.3256 12.1022 64.03 10.8133Z" fill="#DBE3F2"/>
<path fill-rule="evenodd" clip-rule="evenodd" d="M39.4587 28.6601L54.8775 31.4183C56.7497 31.7531 58.5424 30.5085 58.8773 28.6363C59.2122 26.7642 57.9629 24.9707 56.0908 24.6358L40.672 21.8777C38.7999 21.5428 37.0109 22.7928 36.676 24.6649C36.3411 26.5371 37.5866 28.3252 39.4587 28.6601ZM35.2817 42.641L59.2986 46.9372C61.1117 47.2615 62.8566 46.0083 63.1914 44.1362C63.5263 42.264 62.325 40.4791 60.5118 40.1547L36.495 35.8586C34.6818 35.5342 32.9406 36.7928 32.6057 38.6649C32.2708 40.5371 33.4685 42.3167 35.2817 42.641Z" fill="#DBE3F2"/>
</svg>
