<svg width="47" height="47" viewBox="0 0 47 47" fill="none" xmlns="http://www.w3.org/2000/svg">
<path d="M23.4555 0C18.8165 0 14.2816 1.36457 10.4243 3.92114C6.5671 6.47772 3.56075 10.1115 1.78545 14.3629C0.0101603 18.6143 -0.454334 23.2925 0.450703 27.8058C1.35574 32.3191 3.58966 36.4648 6.86998 39.7187C10.1503 42.9726 14.3297 45.1885 18.8796 46.0863C23.4295 46.984 28.1456 46.5233 32.4316 44.7623C36.7175 43.0013 40.3808 40.0191 42.9581 36.1929C45.5354 32.3668 46.9111 27.8684 46.9111 23.2667C46.9111 20.2113 46.3044 17.1857 45.1256 14.3629C43.9469 11.5401 42.2192 8.97516 40.0411 6.81465C37.8631 4.65414 35.2773 2.94032 32.4316 1.77106C29.5858 0.601805 26.5358 0 23.4555 0ZM39.721 23.8841H30.5305V23.9065L38.1739 31.4883L34.518 35.1125L28.0203 28.6672L28.0023 28.6829V39.4035H22.8376V30.2869H22.8128L15.1717 37.8665L11.5158 34.2423L18.0134 27.7992C18.0094 27.7923 18.004 27.7862 17.9976 27.7813H7.19003V22.6537H16.3783C16.3783 22.6537 16.3783 22.6403 16.3783 22.6313L8.73268 15.0495L12.3863 11.4253L18.8862 17.8706L18.902 17.8549V7.13437H24.0712V16.2509H24.0915L31.7371 8.67131L35.3908 12.2955L28.8932 18.7386L28.9067 18.7565H39.7165L39.721 23.8841Z" fill="#F16253"/>
<path d="M28.9108 18.39L28.8973 18.3743C27.692 16.9478 25.9666 16.0526 24.0979 15.8843H24.0754C23.8701 15.8664 23.6649 15.8552 23.4552 15.8552C21.7923 15.8537 20.1819 16.4326 18.9061 17.4906L18.8903 17.504C17.4523 18.6996 16.5498 20.4112 16.3802 22.2647V22.2871C16.3621 22.4907 16.3508 22.6943 16.3508 22.9023C16.3493 24.5518 16.9329 26.1493 17.9995 27.4147L18.013 27.4304C19.2183 28.8569 20.9437 29.7521 22.8124 29.9204H22.8349C23.0402 29.9383 23.2454 29.9495 23.4552 29.9495C25.118 29.951 26.7284 29.3721 28.0042 28.3141L28.02 28.3007C29.458 27.1051 30.3605 25.3935 30.5302 23.5399V23.5176C30.5482 23.314 30.5595 23.1104 30.5595 22.9023C30.561 21.2529 29.9774 19.6554 28.9108 18.39Z" fill="#F16253"/>
</svg>
