<svg width="95" height="20" viewBox="0 0 95 20" fill="none" xmlns="http://www.w3.org/2000/svg">
<path d="M9.67748 0C7.76346 0 5.89242 0.563004 4.30096 1.61782C2.70951 2.67263 1.46912 4.17187 0.736657 5.92596C0.00419202 7.68005 -0.187453 9.61021 0.185955 11.4723C0.559362 13.3345 1.48105 15.0449 2.83447 16.3875C4.18789 17.73 5.91225 18.6443 7.7895 19.0147C9.66674 19.3851 11.6126 19.195 13.3809 18.4684C15.1492 17.7418 16.6606 16.5114 17.724 14.9328C18.7874 13.3541 19.355 11.4982 19.355 9.59956C19.355 8.33893 19.1046 7.09064 18.6183 5.92596C18.132 4.76129 17.4191 3.70305 16.5205 2.81164C15.6219 1.92024 14.555 1.21314 13.3809 0.730721C12.2068 0.248298 10.9483 0 9.67748 0ZM16.3884 9.85432H12.5965V9.86355L15.7501 12.9917L14.2417 14.487L11.5609 11.8278L11.5534 11.8342V16.2574H9.42252V12.496H9.41228L6.25966 15.6233L4.75127 14.128L7.43212 11.4696C7.43046 11.4668 7.42825 11.4642 7.42561 11.4622H2.96652V9.34665H6.75749C6.75749 9.34665 6.75749 9.34111 6.75749 9.33742L3.603 6.20925L5.11046 4.71394L7.79223 7.3732L7.79875 7.36674V2.94356H9.93151V6.70492H9.93989L13.0944 3.57768L14.6018 5.073L11.921 7.73134L11.9266 7.73872H16.3866L16.3884 9.85432Z" fill="#F16253"/>
<path d="M11.9283 7.58743L11.9227 7.58097C11.4254 6.99242 10.7135 6.62307 9.94252 6.55363H9.93321C9.84853 6.54624 9.76385 6.54163 9.67731 6.54163C8.99123 6.54098 8.3268 6.77985 7.80044 7.21637L7.79393 7.2219C7.20061 7.71517 6.82826 8.42135 6.75825 9.18612V9.19535C6.75081 9.27935 6.74616 9.36334 6.74616 9.44919C6.74551 10.1297 6.98631 10.7888 7.42637 11.3109L7.43195 11.3174C7.92922 11.9059 8.64114 12.2753 9.41211 12.3447H9.42142C9.5061 12.3521 9.59078 12.3567 9.67731 12.3567C10.3634 12.3574 11.0278 12.1185 11.5542 11.682L11.5607 11.6765C12.154 11.1832 12.5264 10.477 12.5964 9.71225V9.70302C12.6038 9.61902 12.6085 9.53503 12.6085 9.44919C12.6091 8.76863 12.3683 8.10955 11.9283 7.58743Z" fill="#F16253"/>
<path d="M24.306 0L24.306 19.3916" stroke="#696F79" stroke-opacity="0.24" stroke-width="0.412588"/>
<path d="M37.2224 8.58881L35.4649 8.25115C34.7722 8.12128 34.2701 8.01738 33.941 7.92214C33.6207 7.83557 33.4129 7.74033 33.3263 7.64509C33.2398 7.54985 33.1965 7.41998 33.1965 7.25548C33.1965 6.95245 33.3436 6.74466 33.6467 6.64076C33.941 6.53687 34.4692 6.48492 35.2224 6.48492C36.7636 6.48492 38.1921 6.69271 39.4908 7.10829L39.5601 7.03903L39.612 4.12129C39.0493 3.94813 38.348 3.79229 37.4995 3.67108C36.651 3.54986 35.6813 3.48926 34.5644 3.48926C32.7116 3.48926 31.3696 3.749 30.5211 4.25982C29.6813 4.78795 29.2571 5.74899 29.2571 7.1689C29.2571 8.21652 29.5255 8.99573 30.0623 9.52387C30.5991 10.0434 31.4822 10.4243 32.703 10.6667L34.6077 11.0304C35.2051 11.1429 35.6034 11.2295 35.8025 11.2988C36.0016 11.3594 36.1055 11.5325 36.1055 11.8096C36.1055 12.0001 36.0449 12.1559 35.9151 12.2685C35.7852 12.381 35.5341 12.4589 35.1705 12.5109C34.7982 12.5628 34.2441 12.5801 33.5081 12.5801C31.9757 12.5801 30.5904 12.407 29.335 12.052L29.2571 12.0866V15.0563C29.967 15.2035 30.7636 15.3247 31.6553 15.4286C32.5471 15.5325 33.5255 15.5845 34.5904 15.5845C35.993 15.5845 37.0839 15.4719 37.8804 15.2468C38.677 15.0217 39.2397 14.6407 39.5774 14.1039C39.9151 13.5671 40.0882 12.8399 40.0882 11.9221C40.0882 10.8745 39.8545 10.1126 39.3869 9.62777C38.9194 9.14292 38.2008 8.7966 37.2224 8.58881Z" fill="black"/>
<path d="M49.6899 10.303C49.6726 10.9437 49.5341 11.4025 49.2657 11.6623C48.9973 11.9307 48.4865 12.0605 47.7332 12.0605C46.9453 12.0605 46.4259 11.9134 46.1661 11.6103C45.9064 11.316 45.7765 10.8051 45.7765 10.0779L45.7505 3.61035H41.8977V11.0129C41.8977 12.4761 42.2094 13.6017 42.8415 14.3895C43.4648 15.1774 44.5211 15.5757 46.0016 15.5757C46.9194 15.5757 47.6986 15.4372 48.3393 15.1514C48.98 14.8744 49.4129 14.4934 49.6207 14.0259H49.6899L49.8804 15.3506H53.5514V3.61901H49.6899V10.303Z" fill="black"/>
<path d="M78.2786 3.61902H74.1314C73.6466 4.90906 73.2223 6.19044 72.8414 7.48048C72.4604 8.77052 72.1574 10.0779 71.915 11.4112H71.863C71.6206 10.0606 71.3002 8.74454 70.9106 7.4545C70.5124 6.16446 70.0968 4.89174 69.6466 3.61902H65.3262V3.67097L69.9842 15.3939L68.1228 19.8094V19.8614H72.0795L78.2786 3.69694V3.61902Z" fill="black"/>
<path d="M91.179 15.3419L86.6855 3.59302H85.1443H82.5383H80.9972L76.5037 15.3419H80.6595L83.8456 7.00426L87.0318 15.3419H91.179Z" fill="black"/>
<path d="M60.573 4.08666C60.0275 4.48493 59.6812 5.12562 59.534 6.02605H59.4648L59.1531 3.61047H56.0102V15.3594H59.8717L59.9236 11.1169C59.9236 10.026 60.0535 9.19487 60.3219 8.64076C60.5903 8.08665 60.9539 7.71435 61.4301 7.51522C61.8803 7.3334 62.3912 7.23816 62.9453 7.22951H64.9453V3.48926H62.9453C61.8977 3.50657 61.1098 3.70571 60.573 4.08666Z" fill="black"/>
<path d="M92.9971 5.5844C91.3262 5.5844 89.9755 4.23375 89.9755 2.56276C89.9755 1.48052 90.5469 0.536795 91.3954 0C89.9409 0.329003 88.8586 1.6277 88.8586 3.17748C88.8586 4.97834 90.3132 6.43288 92.114 6.43288C93.2655 6.43288 94.2785 5.83548 94.8586 4.93505C94.3478 5.34198 93.7071 5.5844 92.9971 5.5844Z" fill="#F16522"/>
</svg>
